<?xml version="1.0" encoding="utf-8"?>
<!-- Generator: Adobe Illustrator 13.0.0, SVG Export Plug-In . SVG Version: 6.00 Build 14948)  -->
<!DOCTYPE svg PUBLIC "-//W3C//DTD SVG 1.1//EN" "http://www.w3.org/Graphics/SVG/1.1/DTD/svg11.dtd">
<svg version="1.1" id="Livello_1" xmlns="http://www.w3.org/2000/svg" xmlns:xlink="http://www.w3.org/1999/xlink" x="0px" y="0px"
	 width="967.174px" height="304px" viewBox="0 0 967.174 304" enable-background="new 0 0 967.174 304" xml:space="preserve">
<path fill-rule="evenodd" clip-rule="evenodd" fill="#FFFFFF" d="M340.724,0c10.667,0,21.333,0,32,0c0,101.333,0,202.668,0,304
	c-11,0-22,0-33,0c0-100.333,0-200.667,0-301C339.638,1.581,339.559,0.168,340.724,0z"/>
<path fill-rule="evenodd" clip-rule="evenodd" fill="#FFFFFF" d="M144.724,63c18.337-19.675,45.533-39.329,85-30
	c26.37,6.233,48.629,27.157,57,53c9.323,28.783,1.231,65.723,4,106c-11,0-22,0-33,0c-4.207-33.163,6.904-71.633-3-98
	c-17.425-46.388-87.322-35.856-93,11c-3.146,25.966,2.299,54.978,0,87c-11,0-22,0-33,0c-3.694-31.086,5.417-67.708-1-94
	c-3.311-13.563-16.425-26.508-27-31c-27.138-11.527-62.613,6.263-67,35c-4.122,27.001,3.017,57.143,0,90c-11,0-22,0-33,0
	c1.651-32.35-2.262-62.067,0-88c3.34-38.3,34.482-69.934,74-73C106.834,28.508,129.845,43.959,144.724,63z"/>
<path fill-rule="evenodd" clip-rule="evenodd" fill="#FFFFFF" d="M575.724,192c-35.391-1.848-64.205,2.496-90,0
	c-38.954-3.77-71-38.059-71-80c0-40.816,31.875-79.543,78-81c42.921-1.356,78.826,30.575,83,71
	C578.631,130.16,573.598,159.16,575.724,192z M452.724,89c-6.376,11.845-6.847,31.529-1,44c8.783,18.733,28.585,26.836,43,27
	c30.777,0.351,58.333-32.379,46-66c-1.76-4.796-6.364-11.005-8-13c-9.061-11.05-24.97-19.029-45-16
	C469.575,67.745,457.587,79.967,452.724,89z"/>
<path fill-rule="evenodd" clip-rule="evenodd" fill="#FFFFFF" d="M645.724,192c0,37.333,0,74.666,0,112c-11,0-22,0-33,0
	c0-49.539,0-107.255,0-156c0-27.738-0.817-50.841,8-70c10.604-23.042,33.467-43.391,67-46c37.541-2.921,68.105,19.785,80,45
	c9.905,20.999,8.528,55.803-5,78c-9.65,15.835-30.802,33.797-54,37C689.756,194.619,670.503,190.073,645.724,192z M645.724,119
	c1.871,16.523,16.277,35.396,34,40c34.274,8.904,62.573-17.615,62-48c-0.566-29.996-26.023-50.455-58-45
	C661.473,69.795,642.442,90.014,645.724,119z"/>
<path fill-rule="evenodd" clip-rule="evenodd" fill="#FFFFFF" d="M838.724,192c0,37.333,0,74.666,0,112c-11,0-22,0-33,0
	c0-49.539,0-107.255,0-156c0-27.738-0.817-50.841,8-70c10.604-23.042,33.467-43.391,67-46c37.541-2.921,68.105,19.785,80,45
	c9.905,20.999,8.528,55.803-5,78c-9.65,15.835-30.802,33.797-54,37C882.756,194.619,863.503,190.073,838.724,192z M838.724,119
	c1.871,16.523,16.277,35.396,34,40c34.274,8.904,62.573-17.615,62-48c-0.566-29.997-26.023-50.455-58-45
	C854.473,69.795,835.442,90.014,838.724,119z"/>
<path fill-rule="evenodd" clip-rule="evenodd" fill="#FFFFFF" d="M485.724,86c15.946-3.796,30.792,7.165,27,26
	c-4.068,20.208-48.927,22.725-42-12C471.956,93.827,476.4,88.22,485.724,86z"/>
</svg>
